<?xml version="1.0" encoding="UTF-8" standalone="no"?>
<svg width="128px" height="128px" viewBox="0 0 128 128" version="1.1" xmlns="http://www.w3.org/2000/svg" xmlns:xlink="http://www.w3.org/1999/xlink">
    <!-- Generator: Sketch 40.3 (33839) - http://www.bohemiancoding.com/sketch -->
    <title>128</title>
    <desc>Created with Sketch.</desc>
    <defs>
        <linearGradient x1="50%" y1="0%" x2="50%" y2="100%" id="linearGradient-1">
            <stop stop-color="#DBEAD3" offset="0%"></stop>
            <stop stop-color="#98BC89" offset="100%"></stop>
        </linearGradient>
        <linearGradient x1="15.7913036%" y1="14.7370493%" x2="91.0087401%" y2="85.2281246%" id="linearGradient-2">
            <stop stop-color="#000000" offset="0%"></stop>
            <stop stop-color="#FFFFFF" offset="100%"></stop>
        </linearGradient>
        <linearGradient x1="82.1356665%" y1="85.2373953%" x2="-3.11315442%" y2="14.7900497%" id="linearGradient-3">
            <stop stop-color="#000000" offset="0%"></stop>
            <stop stop-color="#FFFFFF" offset="100%"></stop>
        </linearGradient>
        <path d="M6,59.776 C6.5733362,59.776 7.31866208,59.6900009 8.236,59.518 C9.15333792,59.3459991 10.0419957,59.0163358 10.902,58.529 C11.7620043,58.0416642 12.5073302,57.3966707 13.138,56.594 C13.7686698,55.7913293 14.084,54.7593396 14.084,53.498 L14.084,35.782 C14.084,33.7753233 14.4853293,32.0266741 15.288,30.536 C16.0906707,29.0453259 17.0653276,27.8126715 18.212,26.838 C19.3586724,25.8633285 20.5626604,25.146669 21.824,24.688 C23.0853396,24.229331 24.1746621,24 25.092,24 L32.918,24 L32.918,31.74 L28.188,31.74 C27.0986612,31.74 26.2386698,31.9263315 25.608,32.299 C24.9773302,32.6716685 24.4900017,33.158997 24.146,33.761 C23.8019983,34.363003 23.5870004,35.0223298 23.501,35.739 C23.4149996,36.4556703 23.372,37.1293302 23.372,37.76 L23.372,54.53 C23.372,56.2500086 23.0280034,57.6833276 22.34,58.83 C21.6519966,59.9766724 20.8350047,60.8796634 19.889,61.539 C18.9429953,62.1983366 17.9683384,62.6856651 16.965,63.001 C15.9616617,63.3163349 15.1160034,63.5026664 14.428,63.56 L14.428,63.732 C15.1160034,63.7893336 15.9616617,63.9326655 16.965,64.162 C17.9683384,64.3913345 18.9429953,64.8356634 19.889,65.495 C20.8350047,66.1543366 21.6519966,67.1003272 22.34,68.333 C23.0280034,69.5656728 23.372,71.2139897 23.372,73.278 L23.372,89.532 C23.372,90.1626698 23.4149996,90.8363298 23.501,91.553 C23.5870004,92.2696703 23.8019983,92.928997 24.146,93.531 C24.4900017,94.133003 24.9773302,94.6203315 25.608,94.993 C26.2386698,95.3656685 27.0986612,95.552 28.188,95.552 L32.918,95.552 L32.918,103.292 L25.092,103.292 C24.1746621,103.292 23.0853396,103.062669 21.824,102.604 C20.5626604,102.145331 19.3586724,101.428672 18.212,100.454 C17.0653276,99.4793285 16.0906707,98.2466741 15.288,96.756 C14.4853293,95.2653259 14.084,93.5166767 14.084,91.51 L14.084,74.482 C14.084,73.1059931 13.7686698,71.9593379 13.138,71.042 C12.5073302,70.1246621 11.7620043,69.4080026 10.902,68.892 C10.0419957,68.3759974 9.15333792,68.0176677 8.236,67.817 C7.31866208,67.6163323 6.5733362,67.516 6,67.516 L6,59.776 Z M122.364,67.516 C121.73333,67.516 120.959338,67.6163323 120.042,67.817 C119.124662,68.0176677 118.236004,68.347331 117.376,68.806 C116.515996,69.264669 115.785003,69.8953293 115.183,70.698 C114.580997,71.5006707 114.28,72.5326604 114.28,73.794 L114.28,91.51 C114.28,93.5166767 113.878671,95.2653259 113.076,96.756 C112.273329,98.2466741 111.298672,99.4793285 110.152,100.454 C109.005328,101.428672 107.80134,102.145331 106.54,102.604 C105.27866,103.062669 104.189338,103.292 103.272,103.292 L95.446,103.292 L95.446,95.552 L100.176,95.552 C101.265339,95.552 102.12533,95.3656685 102.756,94.993 C103.38667,94.6203315 103.873998,94.133003 104.218,93.531 C104.562002,92.928997 104.777,92.2696703 104.863,91.553 C104.949,90.8363298 104.992,90.1626698 104.992,89.532 L104.992,72.762 C104.992,71.0419914 105.335997,69.6086724 106.024,68.462 C106.712003,67.3153276 107.528995,66.4123366 108.475,65.753 C109.421005,65.0936634 110.395662,64.6206681 111.399,64.334 C112.402338,64.0473319 113.247997,63.8466672 113.936,63.732 L113.936,63.56 C113.247997,63.5026664 112.402338,63.3593345 111.399,63.13 C110.395662,62.9006655 109.421005,62.4563366 108.475,61.797 C107.528995,61.1376634 106.712003,60.1916728 106.024,58.959 C105.335997,57.7263272 104.992,56.0780103 104.992,54.014 L104.992,37.76 C104.992,37.1293302 104.949,36.4556703 104.863,35.739 C104.777,35.0223298 104.562002,34.363003 104.218,33.761 C103.873998,33.158997 103.38667,32.6716685 102.756,32.299 C102.12533,31.9263315 101.265339,31.74 100.176,31.74 L95.446,31.74 L95.446,24 L103.272,24 C104.189338,24 105.27866,24.229331 106.54,24.688 C107.80134,25.146669 109.005328,25.8633285 110.152,26.838 C111.298672,27.8126715 112.273329,29.0453259 113.076,30.536 C113.878671,32.0266741 114.28,33.7753233 114.28,35.782 L114.28,52.81 C114.28,54.1860069 114.580997,55.3326621 115.183,56.25 C115.785003,57.1673379 116.515996,57.8839974 117.376,58.4 C118.236004,58.9160026 119.124662,59.2743323 120.042,59.475 C120.959338,59.6756677 121.73333,59.776 122.364,59.776 L122.364,67.516 Z" id="path-4"></path>
        <filter x="-50%" y="-50%" width="200%" height="200%" filterUnits="objectBoundingBox" id="filter-5">
            <feGaussianBlur stdDeviation="1.3" in="SourceAlpha" result="shadowBlurInner1"></feGaussianBlur>
            <feOffset dx="0" dy="1" in="shadowBlurInner1" result="shadowOffsetInner1"></feOffset>
            <feComposite in="shadowOffsetInner1" in2="SourceAlpha" operator="arithmetic" k2="-1" k3="1" result="shadowInnerInner1"></feComposite>
            <feColorMatrix values="0 0 0 0 0.205835459   0 0 0 0 0.205461863   0 0 0 0 0.205461863  0 0 0 0.7 0" type="matrix" in="shadowInnerInner1"></feColorMatrix>
        </filter>
    </defs>
    <g id="Page-1" stroke="none" stroke-width="1" fill="none" fill-rule="evenodd">
        <g id="128">
            <rect id="Rectangle" fill="url(#linearGradient-1)" x="0" y="0" width="128" height="128" rx="16"></rect>
            <g id="JSON_vector_logo" opacity="0.498600746" style="mix-blend-mode: multiply;" transform="translate(32.000000, 32.000000)">
                <g id="svg-001">
                    <path d="M31.94584,47.639828 C46.104912,66.941964 59.961668,42.25242 59.941312,27.405128 C59.917232,9.850708 42.124948,0.039652 31.93424,0.039652 C15.577272,0.039652 0,13.558084 0,32.054008 C0,52.612408 17.856152,63.999996 31.93424,63.999996 C28.748452,63.541296 18.13176,61.266416 17.989072,36.813288 C17.893124,20.274648 23.3841,13.667084 31.91118,16.573668 C32.102152,16.644496 41.316748,20.279472 41.316748,32.15388 C41.316748,43.977848 31.94584,47.639828 31.94584,47.639828 L31.94584,47.639828 Z" id="path7508" fill="url(#linearGradient-2)"></path>
                    <path d="M31.929308,16.560324 C22.573288,13.335572 11.1121,21.046648 11.1121,36.491848 C11.1121,61.71104 29.80032,63.999996 32.065764,63.999996 C48.422732,63.999996 64,50.481564 64,31.98564 C64,11.42724 46.143848,0.039652 32.065764,0.039652 C35.965008,-0.500348 53.082112,4.259616 53.082112,27.654372 C53.082112,42.91084 40.300968,51.216356 31.987924,47.667748 C31.796952,47.59692 22.582356,43.961944 22.582356,32.087536 C22.582356,20.263568 31.929308,16.560324 31.929308,16.560324 L31.929308,16.560324 Z" id="path7510" fill="url(#linearGradient-3)"></path>
                </g>
            </g>
            <path d="M6,59.776 C6.5733362,59.776 7.31866208,59.6900009 8.236,59.518 C9.15333792,59.3459991 10.0419957,59.0163358 10.902,58.529 C11.7620043,58.0416642 12.5073302,57.3966707 13.138,56.594 C13.7686698,55.7913293 14.084,54.7593396 14.084,53.498 L14.084,35.782 C14.084,33.7753233 14.4853293,32.0266741 15.288,30.536 C16.0906707,29.0453259 17.0653276,27.8126715 18.212,26.838 C19.3586724,25.8633285 20.5626604,25.146669 21.824,24.688 C23.0853396,24.229331 24.1746621,24 25.092,24 L32.918,24 L32.918,31.74 L28.188,31.74 C27.0986612,31.74 26.2386698,31.9263315 25.608,32.299 C24.9773302,32.6716685 24.4900017,33.158997 24.146,33.761 C23.8019983,34.363003 23.5870004,35.0223298 23.501,35.739 C23.4149996,36.4556703 23.372,37.1293302 23.372,37.76 L23.372,54.53 C23.372,56.2500086 23.0280034,57.6833276 22.34,58.83 C21.6519966,59.9766724 20.8350047,60.8796634 19.889,61.539 C18.9429953,62.1983366 17.9683384,62.6856651 16.965,63.001 C15.9616617,63.3163349 15.1160034,63.5026664 14.428,63.56 L14.428,63.732 C15.1160034,63.7893336 15.9616617,63.9326655 16.965,64.162 C17.9683384,64.3913345 18.9429953,64.8356634 19.889,65.495 C20.8350047,66.1543366 21.6519966,67.1003272 22.34,68.333 C23.0280034,69.5656728 23.372,71.2139897 23.372,73.278 L23.372,89.532 C23.372,90.1626698 23.4149996,90.8363298 23.501,91.553 C23.5870004,92.2696703 23.8019983,92.928997 24.146,93.531 C24.4900017,94.133003 24.9773302,94.6203315 25.608,94.993 C26.2386698,95.3656685 27.0986612,95.552 28.188,95.552 L32.918,95.552 L32.918,103.292 L25.092,103.292 C24.1746621,103.292 23.0853396,103.062669 21.824,102.604 C20.5626604,102.145331 19.3586724,101.428672 18.212,100.454 C17.0653276,99.4793285 16.0906707,98.2466741 15.288,96.756 C14.4853293,95.2653259 14.084,93.5166767 14.084,91.51 L14.084,74.482 C14.084,73.1059931 13.7686698,71.9593379 13.138,71.042 C12.5073302,70.1246621 11.7620043,69.4080026 10.902,68.892 C10.0419957,68.3759974 9.15333792,68.0176677 8.236,67.817 C7.31866208,67.6163323 6.5733362,67.516 6,67.516 L6,59.776 Z M122.364,67.516 C121.73333,67.516 120.959338,67.6163323 120.042,67.817 C119.124662,68.0176677 118.236004,68.347331 117.376,68.806 C116.515996,69.264669 115.785003,69.8953293 115.183,70.698 C114.580997,71.5006707 114.28,72.5326604 114.28,73.794 L114.28,91.51 C114.28,93.5166767 113.878671,95.2653259 113.076,96.756 C112.273329,98.2466741 111.298672,99.4793285 110.152,100.454 C109.005328,101.428672 107.80134,102.145331 106.54,102.604 C105.27866,103.062669 104.189338,103.292 103.272,103.292 L95.446,103.292 L95.446,95.552 L100.176,95.552 C101.265339,95.552 102.12533,95.3656685 102.756,94.993 C103.38667,94.6203315 103.873998,94.133003 104.218,93.531 C104.562002,92.928997 104.777,92.2696703 104.863,91.553 C104.949,90.8363298 104.992,90.1626698 104.992,89.532 L104.992,72.762 C104.992,71.0419914 105.335997,69.6086724 106.024,68.462 C106.712003,67.3153276 107.528995,66.4123366 108.475,65.753 C109.421005,65.0936634 110.395662,64.6206681 111.399,64.334 C112.402338,64.0473319 113.247997,63.8466672 113.936,63.732 L113.936,63.56 C113.247997,63.5026664 112.402338,63.3593345 111.399,63.13 C110.395662,62.9006655 109.421005,62.4563366 108.475,61.797 C107.528995,61.1376634 106.712003,60.1916728 106.024,58.959 C105.335997,57.7263272 104.992,56.0780103 104.992,54.014 L104.992,37.76 C104.992,37.1293302 104.949,36.4556703 104.863,35.739 C104.777,35.0223298 104.562002,34.363003 104.218,33.761 C103.873998,33.158997 103.38667,32.6716685 102.756,32.299 C102.12533,31.9263315 101.265339,31.74 100.176,31.74 L95.446,31.74 L95.446,24 L103.272,24 C104.189338,24 105.27866,24.229331 106.54,24.688 C107.80134,25.146669 109.005328,25.8633285 110.152,26.838 C111.298672,27.8126715 112.273329,29.0453259 113.076,30.536 C113.878671,32.0266741 114.28,33.7753233 114.28,35.782 L114.28,52.81 C114.28,54.1860069 114.580997,55.3326621 115.183,56.25 C115.785003,57.1673379 116.515996,57.8839974 117.376,58.4 C118.236004,58.9160026 119.124662,59.2743323 120.042,59.475 C120.959338,59.6756677 121.73333,59.776 122.364,59.776 L122.364,67.516 Z" id="{-}" fill="#C6C6C6"></path>
            <g id="{-}" fill-opacity="1" fill="black">
                <use filter="url(#filter-5)" xlink:href="#path-4"></use>
            </g>
        </g>
    </g>
</svg>
